<mxfile host="app.diagrams.net" modified="2023-11-16T21:19:38.831Z" agent="Mozilla/5.0 (X11; Ubuntu; Linux x86_64; rv:109.0) Gecko/20100101 Firefox/116.0" etag="FzG5E29Fwao7hdKQBcxN" version="21.7.3" type="github">
  <diagram name="Page-1" id="lkY6u5KL_kNA6OW4VcjX">
    <mxGraphModel dx="335" dy="247" grid="1" gridSize="10" guides="1" tooltips="1" connect="1" arrows="1" fold="1" page="1" pageScale="1" pageWidth="850" pageHeight="1100" math="0" shadow="0">
      <root>
        <mxCell id="0" />
        <mxCell id="1" parent="0" />
        <mxCell id="chzB3aB0KfJMiuLw84Tf-4" value="composed" style="rounded=1;whiteSpace=wrap;html=1;spacingTop=-90;" vertex="1" parent="1">
          <mxGeometry x="350" y="460" width="200" height="110" as="geometry" />
        </mxCell>
        <mxCell id="chzB3aB0KfJMiuLw84Tf-1" value="host" style="rounded=1;whiteSpace=wrap;html=1;" vertex="1" parent="1">
          <mxGeometry x="340" y="410" width="60" height="20" as="geometry" />
        </mxCell>
        <mxCell id="chzB3aB0KfJMiuLw84Tf-2" value="virt" style="rounded=1;whiteSpace=wrap;html=1;" vertex="1" parent="1">
          <mxGeometry x="360" y="480" width="60" height="20" as="geometry" />
        </mxCell>
        <mxCell id="chzB3aB0KfJMiuLw84Tf-3" value="app" style="rounded=1;whiteSpace=wrap;html=1;" vertex="1" parent="1">
          <mxGeometry x="360" y="540" width="60" height="20" as="geometry" />
        </mxCell>
        <mxCell id="chzB3aB0KfJMiuLw84Tf-5" value="host types" style="curved=1;endArrow=classic;html=1;rounded=0;exitX=0;exitY=0.5;exitDx=0;exitDy=0;entryX=0;entryY=0.5;entryDx=0;entryDy=0;fontSize=9;" edge="1" parent="1" source="chzB3aB0KfJMiuLw84Tf-1" target="chzB3aB0KfJMiuLw84Tf-2">
          <mxGeometry width="50" height="50" relative="1" as="geometry">
            <mxPoint x="400" y="530" as="sourcePoint" />
            <mxPoint x="320" y="520" as="targetPoint" />
            <Array as="points">
              <mxPoint x="310" y="450" />
            </Array>
          </mxGeometry>
        </mxCell>
        <mxCell id="chzB3aB0KfJMiuLw84Tf-6" value="virt types" style="endArrow=classic;html=1;rounded=0;exitX=0.5;exitY=1;exitDx=0;exitDy=0;entryX=0.5;entryY=0;entryDx=0;entryDy=0;fontSize=9;" edge="1" parent="1" source="chzB3aB0KfJMiuLw84Tf-2" target="chzB3aB0KfJMiuLw84Tf-3">
          <mxGeometry width="50" height="50" relative="1" as="geometry">
            <mxPoint x="400" y="530" as="sourcePoint" />
            <mxPoint x="450" y="480" as="targetPoint" />
          </mxGeometry>
        </mxCell>
        <mxCell id="chzB3aB0KfJMiuLw84Tf-7" value="wrapper" style="rounded=1;whiteSpace=wrap;html=1;" vertex="1" parent="1">
          <mxGeometry x="480" y="480" width="60" height="20" as="geometry" />
        </mxCell>
        <mxCell id="chzB3aB0KfJMiuLw84Tf-8" value="host types" style="curved=1;endArrow=classic;html=1;rounded=0;exitX=1;exitY=0.75;exitDx=0;exitDy=0;entryX=0.5;entryY=0;entryDx=0;entryDy=0;fontSize=9;" edge="1" parent="1" source="chzB3aB0KfJMiuLw84Tf-1" target="chzB3aB0KfJMiuLw84Tf-7">
          <mxGeometry width="50" height="50" relative="1" as="geometry">
            <mxPoint x="400" y="530" as="sourcePoint" />
            <mxPoint x="450" y="480" as="targetPoint" />
            <Array as="points">
              <mxPoint x="460" y="450" />
            </Array>
          </mxGeometry>
        </mxCell>
        <mxCell id="chzB3aB0KfJMiuLw84Tf-9" value="virt types" style="endArrow=classic;html=1;rounded=0;exitX=1;exitY=0.5;exitDx=0;exitDy=0;entryX=0;entryY=0.5;entryDx=0;entryDy=0;fontSize=9;" edge="1" parent="1" source="chzB3aB0KfJMiuLw84Tf-2" target="chzB3aB0KfJMiuLw84Tf-7">
          <mxGeometry width="50" height="50" relative="1" as="geometry">
            <mxPoint x="400" y="530" as="sourcePoint" />
            <mxPoint x="450" y="480" as="targetPoint" />
          </mxGeometry>
        </mxCell>
        <mxCell id="chzB3aB0KfJMiuLw84Tf-10" value="&lt;div&gt;handler (with virt types)&lt;/div&gt;" style="curved=1;endArrow=classic;html=1;rounded=0;entryX=0.5;entryY=1;entryDx=0;entryDy=0;exitX=1.028;exitY=0.386;exitDx=0;exitDy=0;exitPerimeter=0;fontSize=9;" edge="1" parent="1" source="chzB3aB0KfJMiuLw84Tf-3" target="chzB3aB0KfJMiuLw84Tf-7">
          <mxGeometry width="50" height="50" relative="1" as="geometry">
            <mxPoint x="420" y="530" as="sourcePoint" />
            <mxPoint x="450" y="480" as="targetPoint" />
            <Array as="points">
              <mxPoint x="460" y="540" />
            </Array>
          </mxGeometry>
        </mxCell>
        <mxCell id="chzB3aB0KfJMiuLw84Tf-11" value="handler (with host types)" style="curved=1;endArrow=classic;html=1;rounded=0;exitX=0.75;exitY=0;exitDx=0;exitDy=0;entryX=1.014;entryY=0.344;entryDx=0;entryDy=0;entryPerimeter=0;fontSize=9;" edge="1" parent="1" source="chzB3aB0KfJMiuLw84Tf-7" target="chzB3aB0KfJMiuLw84Tf-1">
          <mxGeometry width="50" height="50" relative="1" as="geometry">
            <mxPoint x="400" y="530" as="sourcePoint" />
            <mxPoint x="450" y="480" as="targetPoint" />
            <Array as="points">
              <mxPoint x="510" y="430" />
            </Array>
          </mxGeometry>
        </mxCell>
      </root>
    </mxGraphModel>
  </diagram>
</mxfile>
